<svg xmlns="http://www.w3.org/2000/svg" width="64" height="64" viewBox="-8 0 37 37" fill="none">
  <g fill="#F87116" stroke="#F87116" stroke-width="1.5" stroke-linejoin="miter" stroke-miterlimit="10" transform="translate(.984 35.1875)">
    <path d="M.28125-.234375 6.234375-33.210938c.03125-.125.109375-.1875.234375-.1875h6.960938c.125 0 .203124.0625.234374.1875l5.71875 32.976563C19.398438-.078125 19.335938 0 19.195312 0H13.875c-.15625 0-.242188-.078125-.257812-.234375L13.101562-3.75H6.5625l-.515625 3.515625C6.03125-.078125 5.953125 0 5.8125 0H.46875C.34375 0 .28125-.078125.28125-.234375ZM9.679688-22.359375 7.523438-8.882812h4.617187l-1.96875-13.476563-.28125-1.78125-.210937 1.78125Z"/>
  </g>
</svg>
