<svg xmlns="http://www.w3.org/2000/svg" width="139" height="37" viewBox="0 0 139 37" fill="none">
  <g fill="#627084" stroke="#627084" stroke-width="1.5" stroke-linejoin="miter" stroke-miterlimit="10" transform="translate(.984 35.1875)">
    <path d="M.28125-.234375 6.234375-33.210938c.03125-.125.109375-.1875.234375-.1875h6.960938c.125 0 .203124.0625.234374.1875l5.71875 32.976563C19.398438-.078125 19.335938 0 19.195312 0H13.875c-.15625 0-.242188-.078125-.257812-.234375L13.101562-3.75H6.5625l-.515625 3.515625C6.03125-.078125 5.953125 0 5.8125 0H.46875C.34375 0 .28125-.078125.28125-.234375ZM9.679688-22.359375 7.523438-8.882812h4.617187l-1.96875-13.476563-.28125-1.78125-.210937 1.78125Z"/>
    <path d="M28.007813 0h-5.4375c-.125 0-.1875-.078125-.1875-.234375l.09375-32.976563c0-.125.0625-.1875.1875-.1875h9.703125c1.734375 0 3.328125.421876 4.78125 1.265626 1.453125.84375 2.613281 1.976562 3.480468 3.398437.867188 1.421875 1.300782 3.03125 1.300782 4.828125 0 1.171875-.179688 2.234375-.539063 3.1875s-.777344 1.757812-1.253906 2.414062c-.476563.65625-.910157 1.140626-1.300781 1.453126 1.734374 1.921874 2.601562 4.179687 2.601562 6.773437l.046875 9.84375C41.484375-.078125 41.40625 0 41.25 0h-5.4375c-.125 0-.1875-.046875-.1875-.140625v-9.9375c0-1.15625-.40625-2.15625-1.21875-3s-1.8125-1.265625-3-1.265625h-3.164062l-.046875 14.109375C28.195313-.078125 28.132813 0 28.007813 0Zm4.359375-27.65625h-4.125v7.546875h4.125c.984375 0 1.863281-.367187 2.636718-1.101563.773438-.734374 1.160157-1.632812 1.160157-2.695312 0-1.015625-.375-1.894531-1.125-2.636719s-1.640625-1.113281-2.671875-1.113281Z"/>
    <path d="M51.148438 0h-5.4375c-.125 0-.1875-.078125-.1875-.234375l.09375-32.929687c0-.15625.0625-.234376.1875-.234376H51.195312c.125 0 .1875.078126.1875.234376v11.367187l7.523438-11.414063c.125-.125.242188-.1875.351562-.1875h5.507813c.140625 0 .171875.0625.09375.1875l-8.296875 13.242188 9.304688 19.78125C65.945312-.0625 65.867188 0 65.632812 0h-5.859374c-.15625 0-.25-.0625-.28125-.1875l-6.492188-14.109375-1.664062 2.625V-.234375C51.335938-.078125 51.273438 0 51.148438 0Z"/>
    <path d="M83.726562 0H68.210938c-.125 0-.1875-.078125-.1875-.234375l.046874-32.929687c0-.15625.078126-.234376.234376-.234376h5.34375c.15625 0 .234374.078126.234374.234376l-.046874 27.257812h9.890624c.15625 0 .234376.078125.234376.234375v5.4375C83.960938-.078125 83.882812 0 83.726562 0Z"/>
    <path d="M95.96875.46875c-1.703125 0-3.273438-.4375-4.710938-1.3125-1.421874-.875-2.566406-2.042969-3.433593-3.503906-.867188-1.460938-1.300781-3.066406-1.300781-4.816406l.046874-15.210938c0-1.78125.429688-3.382812 1.289063-4.804688.84375-1.4375 1.984375-2.589843 3.421875-3.457031 1.4375-.867187 3-1.300781 4.6875-1.300781 1.75 0 3.320312.429688 4.710938 1.289062 1.40625.859376 2.535156 2.011719 3.386718 3.457032.851563 1.445312 1.277344 3.050781 1.277344 4.816406l.046875 15.210938c0 1.75-.421875 3.351562-1.265625 4.804687-.859375 1.46875-2 2.640625-3.421875 3.515625S97.703125.46875 95.96875.46875Zm0-5.789062c.96875 0 1.8125-.394532 2.53125-1.183594.71875-.789063 1.078125-1.675782 1.078125-2.660156l-.046875-15.210938c0-1.0625-.335938-1.960938-1.007812-2.695312-.671876-.734376-1.523438-1.101563-2.554688-1.101563-.984375 0-1.828125.359375-2.53125 1.078125s-1.054688 1.625-1.054688 2.71875v15.210938c0 1.046874.351563 1.949218 1.054688 2.707031.703125.757812 1.546875 1.136719 2.53125 1.136719Z"/>
    <path d="M119.25 0h-5.8125c-.140625 0-.21875-.078125-.234375-.234375l-5.671875-32.976563c-.03125-.125.015625-.1875.140625-.1875h5.390625c.125 0 .203125.0625.234375.1875l3.070313 21.679688 3.164062-21.679688c.03125-.125.125-.1875.28125-.1875h4.335938c.125 0 .203124.0625.234374.1875l3.117188 21.679688 3.117188-21.679688c.03125-.125.109374-.1875.234374-.1875h5.34375c.15625 0 .21875.0625.1875.1875l-5.71875 32.976563c-.015624.0625-.0625.117187-.140624.164062L130.429688 0h-5.8125c-.09375 0-.171876-.078125-.234376-.234375l-2.460937-17.226563-2.4375 17.226563C119.46875-.078125 119.390625 0 119.25 0Z"/>
  </g>
</svg>
